<svg width="25" height="18" viewBox="0 0 25 18" fill="none" xmlns="http://www.w3.org/2000/svg">
<g clip-path="url(#clip0_219_929)">
<path d="M15.8905 10.823C15.1332 13.3334 12.951 15.2777 10.2978 15.6637C8.7765 15.8924 7.22234 15.6074 5.88116 14.8538L3.61866 15.4204C3.0421 15.5637 2.51814 15.0444 2.66085 14.4673L3.22804 12.2001C2.47631 10.8601 2.1914 9.30826 2.41814 7.78865C2.86606 4.75427 5.33845 2.32928 8.38272 1.9574C9.96397 1.76209 11.4598 2.10063 12.7036 2.8199" stroke="white" stroke-linecap="round" stroke-linejoin="round"/>
<path d="M17.9652 0.301969C20.3287 0.593636 22.2527 2.47436 22.5975 4.83114C22.7754 6.01236 22.554 7.21918 21.9683 8.2603L22.4089 10.0192C22.4346 10.1216 22.4333 10.2289 22.4051 10.3306C22.377 10.4323 22.323 10.5251 22.2483 10.5997C22.1737 10.6743 22.081 10.7284 21.9792 10.7565C21.8775 10.7847 21.7702 10.786 21.6678 10.7603L19.9084 10.3202C18.8672 10.9057 17.6604 11.1269 16.4792 10.9488C14.1225 10.6041 12.2412 8.68009 11.9506 6.31603C11.8468 5.50151 11.9309 4.67405 12.1965 3.89708C12.4621 3.12011 12.9021 2.41427 13.4827 1.83369C14.0633 1.25311 14.7692 0.813196 15.5462 0.547688C16.3232 0.282179 17.1507 0.198125 17.9652 0.301969Z" stroke="white" stroke-linecap="round" stroke-linejoin="round"/>
</g>
<defs>
<clipPath id="clip0_219_929">
<rect width="25" height="18" fill="white"/>
</clipPath>
</defs>
</svg>
