<svg width="20" height="20" viewBox="0 0 20 20" fill="none" xmlns="http://www.w3.org/2000/svg">
<g clip-path="url(#clip0_217_6951)">
<path d="M14.7808 2.91667C14.5508 2.07333 13.8267 1.46417 12.9171 1.39875C11.8521 1.32208 10.2771 1.25 8.125 1.25C5.98583 1.25 4.4175 1.32125 3.35292 1.3975C2.2875 1.47333 1.47292 2.2875 1.39708 3.35333C1.32083 4.41792 1.25 5.98667 1.25 8.125C1.25 10.2771 1.3225 11.8517 1.39875 12.9167C1.46417 13.8262 2.07375 14.5508 2.91667 14.7804" stroke="#F9F9F9" stroke-width="1.5" stroke-linecap="round" stroke-linejoin="round"/>
<path d="M5.1475 7.10292C5.22333 6.0375 6.0375 5.22375 7.10333 5.1475C8.1675 5.07083 9.73625 5 11.875 5C14.0137 5 15.5821 5.07125 16.6467 5.1475C17.7125 5.22333 18.5267 6.0375 18.6025 7.10333C18.6787 8.16792 18.75 9.73667 18.75 11.875C18.75 14.0137 18.6787 15.5821 18.6025 16.6471C18.5267 17.7125 17.7125 18.5262 16.6467 18.6025C15.5821 18.6787 14.0133 18.75 11.875 18.75C9.73625 18.75 8.16792 18.6787 7.10292 18.6025C6.0375 18.5267 5.22375 17.7125 5.1475 16.6467C5.07083 15.5825 5 14.0137 5 11.875C5 9.73625 5.07125 8.16792 5.1475 7.10292Z" stroke="#F9F9F9" stroke-width="1.5" stroke-linecap="round" stroke-linejoin="round"/>
<path d="M18.6857 15.1622C17.7461 14.2813 17.069 13.6947 16.599 13.3105C16.0415 12.8542 15.3065 12.788 14.7061 13.1884C14.2436 13.4967 13.6086 13.9676 12.779 14.6797C11.5457 13.5001 10.6957 12.7588 10.1382 12.3026C9.58071 11.8463 8.84571 11.7805 8.24529 12.1805C7.57029 12.6305 6.52738 13.4272 5.05029 14.813M13.3332 9.16675C13.3332 9.49827 13.4649 9.81621 13.6993 10.0506C13.9337 10.2851 14.2517 10.4167 14.5832 10.4167C14.9147 10.4167 15.2327 10.2851 15.4671 10.0506C15.7015 9.81621 15.8332 9.49827 15.8332 9.16675C15.8332 8.83523 15.7015 8.51728 15.4671 8.28286C15.2327 8.04844 14.9147 7.91675 14.5832 7.91675C14.2517 7.91675 13.9337 8.04844 13.6993 8.28286C13.4649 8.51728 13.3332 8.83523 13.3332 9.16675Z" stroke="#F9F9F9" stroke-width="1.5" stroke-linecap="round" stroke-linejoin="round"/>
</g>
<defs>
<clipPath id="clip0_217_6951">
<rect width="20" height="20" fill="white"/>
</clipPath>
</defs>
</svg>
