<svg width="22" height="22" viewBox="0 0 22 22" fill="none" xmlns="http://www.w3.org/2000/svg">
<path d="M5.50008 17.4166H8.25008V12.8333C8.25008 12.5735 8.33808 12.356 8.51408 12.1806C8.69008 12.0052 8.90764 11.9172 9.16675 11.9166H12.8334C13.0931 11.9166 13.311 12.0046 13.487 12.1806C13.663 12.3566 13.7507 12.5741 13.7501 12.8333V17.4166H16.5001V9.16659L11.0001 5.04159L5.50008 9.16659V17.4166ZM3.66675 17.4166V9.16659C3.66675 8.87631 3.73183 8.60131 3.862 8.34159C3.99216 8.08186 4.17153 7.86797 4.40008 7.69992L9.90008 3.57492C10.2209 3.33047 10.5876 3.20825 11.0001 3.20825C11.4126 3.20825 11.7792 3.33047 12.1001 3.57492L17.6001 7.69992C17.8292 7.86797 18.0089 8.08186 18.1391 8.34159C18.2692 8.60131 18.334 8.87631 18.3334 9.16659V17.4166C18.3334 17.9208 18.1537 18.3525 17.7944 18.7118C17.4351 19.0712 17.0036 19.2505 16.5001 19.2499H12.8334C12.5737 19.2499 12.3561 19.1619 12.1807 18.9859C12.0054 18.8099 11.9174 18.5924 11.9167 18.3333V13.7499H10.0834V18.3333C10.0834 18.593 9.99541 18.8108 9.81941 18.9868C9.64341 19.1628 9.42586 19.2505 9.16675 19.2499H5.50008C4.99591 19.2499 4.56447 19.0706 4.20575 18.7118C3.84703 18.3531 3.66736 17.9214 3.66675 17.4166Z" fill="white"/>
</svg>
