<svg width="12" height="14" viewBox="0 0 12 14" fill="none" xmlns="http://www.w3.org/2000/svg">
<path d="M4.49419 9.81357L3.88481 10.1098C2.64731 10.4523 2.02794 10.6236 1.69419 10.2629C1.36044 9.90294 1.53294 9.25044 1.87856 7.94419L1.96731 7.60669C2.06544 7.23482 2.11481 7.04982 2.09044 6.86544C2.06544 6.68169 1.96981 6.51982 1.77856 6.19669L1.60481 5.90294C0.931689 4.76482 0.595439 4.19607 0.819189 3.74294C1.04419 3.29044 1.68106 3.25357 2.95544 3.18044L3.28481 3.16169C3.64731 3.14044 3.82794 3.13044 3.98606 3.04607C4.14356 2.96169 4.26044 2.81357 4.49419 2.51607L4.70669 2.24607C5.52919 1.20044 5.94044 0.67794 6.41294 0.758565C6.88544 0.83919 7.10669 1.46919 7.54856 2.72982L7.66294 3.05607C7.78856 3.41419 7.85169 3.59357 7.97356 3.72482C8.09606 3.85732 8.26356 3.92732 8.59919 4.06669L8.90481 4.19419C10.0861 4.68544 10.6767 4.93169 10.7436 5.43357C10.8011 5.86232 10.4454 6.23544 9.71856 6.86482" stroke="#29282D" stroke-width="1.5"/>
<path d="M7.78295 6.1817C7.16608 5.4442 6.85795 5.07545 6.50295 5.1317C6.14858 5.18857 5.98295 5.63357 5.6517 6.52357L5.56545 6.75357C5.4717 7.0067 5.4242 7.13295 5.33233 7.22607C5.24108 7.3192 5.11483 7.36857 4.86358 7.46732L4.6342 7.5567C3.74858 7.90357 3.30545 8.07732 3.25483 8.4317C3.2042 8.78607 3.57983 9.08732 4.33045 9.68857L4.5242 9.84482C4.73795 10.0154 4.84483 10.1011 4.90608 10.2179C4.96858 10.3348 4.97795 10.4704 4.99733 10.7411L5.01545 10.9873C5.0842 11.9392 5.1192 12.4154 5.44233 12.5779C5.76545 12.7404 6.16358 12.4811 6.9592 11.9636L7.16483 11.8292C7.39108 11.6823 7.5042 11.6086 7.63358 11.5873C7.76358 11.5667 7.89608 11.6011 8.1592 11.6698L8.39983 11.7323C9.32795 11.9736 9.79233 12.0948 10.043 11.8404C10.2936 11.5861 10.1636 11.1254 9.90483 10.2029L9.83733 9.96545C9.7642 9.70295 9.72733 9.5717 9.74545 9.44232C9.7642 9.31232 9.83608 9.19857 9.9792 8.96982L10.1105 8.76232C10.6148 7.9592 10.8667 7.55795 10.698 7.23857C10.5298 6.9192 10.0523 6.89295 9.0967 6.8417L8.8492 6.82795C8.57795 6.81357 8.4417 6.80607 8.32358 6.7467C8.20483 6.68732 8.11733 6.58232 7.94233 6.37232L7.78295 6.1817Z" stroke="#29282D" stroke-width="1.5"/>
</svg>
