<svg width="402" height="25" viewBox="0 0 402 25" fill="none" xmlns="http://www.w3.org/2000/svg">
<g clip-path="url(#clip0_299_6315)">
<rect width="402" height="25" transform="matrix(-1 0 0 -1 402 25)" fill="#29282D"/>
<path d="M2.28308 5.37207L1688.84 5.37207L1688.84 -1420.89L2.28308 -1420.89L2.28308 5.37207Z" fill="#A47968"/>
<path d="M7.6082 -5.72632L7.27237 -0.306698L14.2642 0.307617C11.206 0.293966 8.84349 0.171103 7.03257 -0.0200168C7.18848 -2.23155 7.38035 -4.07449 7.62021 -5.72632H7.6082Z" fill="#A47968"/>
<path d="M1172.55 -1440.55C1134.06 -1438.65 1094.28 -1442.53 1060.76 -1442.73L1072.19 -1441.12L1038.41 -1442.47L1038.79 -1440.15C982.94 -1441.23 913.586 -1438.83 893.138 -1442.51L899.686 -1438.81L840.429 -1441.75L874.357 -1439.25C807.797 -1438.47 706.685 -1441.35 692.461 -1441.34L698.458 -1439.96C687.568 -1439.25 678.981 -1440.16 667.612 -1440.61L676.367 -1438.55C576.07 -1439.11 548.643 -1434.44 436.689 -1436.63C406.179 -1436.14 453.599 -1435.96 454.079 -1434.8C437.409 -1433.16 398.204 -1434.73 389.725 -1435.65C398.588 -1432.41 445.792 -1433.41 409.957 -1430.81C384.496 -1432.41 427.323 -1427.82 382.53 -1428.45L364.972 -1432.6C340.051 -1431.88 359.995 -1429.35 320.598 -1429.76C275.613 -1431.56 375.646 -1434.47 303.209 -1435.07C266.894 -1434.8 226.826 -1425.48 156.452 -1427.7C95.744 -1425.54 188.389 -1421.24 104.415 -1422.31L158.179 -1419.59C144.279 -1418.42 153.046 -1416.34 116.66 -1417.22C105.17 -1418.81 82.6477 -1420.89 63.0034 -1421.09C141.677 -1417.95 -5.96753 -1416.37 67.261 -1412.3L39.9531 -1412.45C43.3472 -1412.29 44.2107 -1411.89 42.4117 -1411.58L6.14514 -1411.29C28.5118 -1410.39 81.7123 -1410.01 57.007 -1406.95L4.46631 -1406.19C18.486 -1403.89 -0.762573 -1402.94 2.29553 -1401.08L156.836 -1396.64C150.767 -1398.02 128.521 -1398.92 136.808 -1400.33C178.063 -1401.54 170.496 -1397.83 209.233 -1399.74L192.119 -1401.57C195.201 -1400.88 200.646 -1400.66 192.191 -1400.42C178.603 -1399.24 172.654 -1400.63 172.546 -1401.78C186.134 -1404.11 225.231 -1402.54 236.864 -1400.93C287.054 -1401.23 247.19 -1405.12 258.247 -1405.83C284.212 -1401.93 342.054 -1405.93 373.139 -1404.12L353.171 -1406.65C391.368 -1409.71 425.56 -1407.2 447.939 -1406.3L439.268 -1408.37C492.432 -1407.97 518.804 -1414.96 559.292 -1407.59L553.68 -1408.97C575.495 -1409.61 608.607 -1411.17 629.511 -1408.97C629.99 -1409.83 633.708 -1410.91 642.535 -1411.17C654.348 -1408.33 677.014 -1410.47 709.167 -1410.99C687.832 -1411.73 694.644 -1415.41 672.157 -1416.3C721.76 -1420.07 717.634 -1412.19 759.309 -1412.25C784.303 -1414.13 736.907 -1414.31 730.922 -1415.69C795.264 -1413.68 863.132 -1424.19 903.728 -1416.83L876.108 -1414.49C901.689 -1412.89 915.553 -1412.92 912.446 -1413.6C904.207 -1413.37 901.437 -1414.05 898.523 -1414.75C975.781 -1418.55 1019.36 -1409.34 1097.36 -1410.83C1091.56 -1412.21 1080.42 -1412.66 1079.94 -1413.82C1115.85 -1415.25 1114.91 -1406.68 1172.9 -1409.53L1161.53 -1411.13C1180.83 -1412.08 1195.15 -1409.78 1192.55 -1409.31C1194.07 -1415.56 1315.3 -1409.01 1355.73 -1417.16C1384.15 -1413.72 1465.51 -1411.05 1490.37 -1412.93C1526.03 -1416.68 1458.79 -1417.05 1472.05 -1420.55C1499.98 -1420.57 1514.64 -1417.12 1556.26 -1418.34C1556.96 -1414.87 1474.02 -1411.28 1552.31 -1409.3L1563.28 -1411.17C1555.16 -1410.92 1544.03 -1410.21 1532.67 -1410.66C1510.03 -1412.72 1546.26 -1413 1551.45 -1413.93L1635.5 -1412.88C1641.64 -1409.18 1591.37 -1410.04 1586.18 -1409.11C1602.31 -1409.3 1619.23 -1409.76 1636.5 -1410.31C1645.14 -1410.6 1653.86 -1410.9 1662.6 -1411.2L1665.89 -1411.31L1667.53 -1411.36L1668.55 -1411.41L1672.63 -1411.65C1675.47 -1411.8 1678.31 -1411.93 1681.14 -1412.08C1681.27 -1408.77 1681.39 -1405.45 1681.53 -1402.15C1681.59 -1400.42 1681.65 -1398.7 1681.69 -1396.98C1681.74 -1394.43 1681.8 -1391.88 1681.85 -1389.33C1682.05 -1378.9 1682.21 -1368.58 1682.29 -1358.45C1682.46 -1338.19 1682.36 -1318.68 1681.81 -1300.55L1683.04 -1307.23C1680.27 -1217.47 1688.98 -1254.83 1683.77 -1183.42C1684.62 -1145.7 1687.22 -1197.02 1687.47 -1140.06C1687.49 -1123.97 1686.26 -1133.4 1685.84 -1136.28C1684.69 -1066.29 1688.92 -1105.47 1685.94 -1040.89L1689.38 -1054.81C1687.02 -977.845 1680.99 -897.165 1682.47 -830.669C1685.12 -834.641 1684.87 -875.787 1686.89 -892.155C1682.09 -802.055 1686.29 -676.039 1683.72 -592.765C1681.45 -617.652 1678.47 -553.34 1676.58 -606.69C1680.03 -620.478 1677.76 -645.501 1678.14 -674.046C1670.65 -627.877 1681.79 -481.042 1675.29 -466.913L1677.94 -454.722C1677.54 -441.944 1675.54 -409.522 1674.7 -431.883L1676.42 -340.009C1678.42 -372.267 1683.04 -440.279 1680.17 -461.63C1682.99 -487.759 1682.04 -423.993 1685.28 -447.132C1680.85 -385.646 1687.15 -409.345 1686.19 -345.674C1682.34 -374.479 1680.99 -282.332 1679.13 -285.199C1679.83 -264.367 1678.06 -218.061 1676.75 -200.15C1676.39 -163.332 1679.49 -78.8709 1678.16 -19.7739C1679.35 -42.1349 1680.95 -77.5331 1683.4 -74.9257C1682.7 -60.4415 1682.36 -45.2475 1682.56 -32.9748C1682.6 -29.9032 1682.69 -27.0228 1682.8 -24.3881C1682.87 -23.0639 1682.94 -21.8079 1683 -20.6066C1683.04 -20.0196 1683.08 -19.4326 1683.12 -18.8865C1683.17 -18.477 1683.22 -18.0675 1683.25 -17.6852C1683.64 -14.559 1684.18 -12.0335 1684.88 -10.5728C1685.04 -13.1802 1685.18 -15.6512 1685.33 -17.9855C1685.45 -20.8114 1685.57 -23.4734 1685.67 -25.9989C1685.88 -31.1592 1686.02 -35.7324 1686.11 -39.8005C1686.29 -47.9231 1686.27 -53.998 1686.11 -58.6941C1685.79 -68.0726 1684.92 -71.9224 1683.98 -75.4581C1682.12 -82.5295 1680.03 -88.3723 1681.71 -134.937C1684.94 -157.94 1685.73 -183.468 1686.69 -231.426C1688.55 -209.57 1689.36 -219.194 1691.61 -210.211C1688.39 -182.608 1688.05 -147.21 1688.24 -109.464C1688.37 -90.5975 1688.51 -71.1306 1688.64 -51.7728C1688.71 -32.5107 1688.61 -12.7434 1688.07 4.44375C1683.95 4.27994 1679.93 4.08881 1676.06 3.87039C1672.61 3.58371 1670.01 3.25608 1667.97 2.90114C1665.81 2.5462 1663.99 2.16396 1662.52 1.76807C1659.52 0.976288 1657.52 0.116249 1654.39 -0.689186C1648.13 -2.30005 1637.38 -3.74711 1605.18 -4.1703L1660.49 -6.54565C1599.66 -4.38873 1646.21 -8.83909 1595.96 -9.71278L1615.94 -7.18727C1585.21 -6.69582 1573.94 -7.13266 1556.9 -8.97561L1582.91 -5.0713C1566.33 -4.57985 1535.68 -4.08839 1535.26 -6.39548C1531 -5.43988 1529.5 -4.68906 1529.5 -4.02014C1526.28 -4.6754 1518.45 -5.08495 1499.04 -4.96209C1510.4 -4.51159 1518.61 -4.75731 1518.85 -3.59694C1444.89 -4.52524 1501.56 0.635002 1455.74 0.266413C1462.99 1.16741 1449.95 2.30048 1433.54 2.77828C1434.64 -3.37852 1343.83 -4.18396 1319.82 -7.59681L1320.11 -7.50125L1258.24 -9.97216C1270.78 -9.46706 1257.25 -7.78793 1239.26 -7.14631L1242.18 -7.17361C1222.52 -6.21801 1265.55 -0.484417 1206.58 -2.2591L1175.59 -4.07474C1181.13 -3.85632 1175.81 -2.91437 1172.9 -2.45022L1140.98 -4.1157C1092.17 1.63156 1048.84 -7.35108 991.407 -4.53889C1007.98 -5.03034 1033.21 -4.5935 1022.4 -2.72325C1011.27 -2.01337 994.466 -2.69595 985.819 -3.61059L988.709 -2.92802L879.274 -6.72312C888.161 -4.6481 949.396 -4.49793 922.029 -2.14989C905.838 0.662306 874.441 -2.31371 854.785 -2.53213C857.315 -4.15665 893.534 -5.59005 856.919 -6.46374C852.446 -5.65831 817.619 -3.97918 834.049 -2.81881C796.559 -4.48429 742.112 -5.48084 708.556 -8.36129C697.918 -7.65142 714.648 -6.9825 720.237 -6.75042L722.935 -7.21457C745.518 -6.31357 726.413 -3.05088 770.763 -4.73001C774.468 0.607698 706.829 -3.25565 667.936 -2.50483L729.951 1.12646C625.481 8.44362 484.457 0.525791 380.958 0.41658C411.324 -1.24889 436.725 0.334671 433.104 -3.82902C368.798 -5.83578 377.229 -4.92113 313.103 -5.76752L318.62 -5.5491C285.459 -3.41947 240.162 -7.52855 218.419 -3.78806C232.739 -1.49462 265.491 -5.94499 266.283 -1.3035L185.367 -1.65844C210.792 1.0855 266.283 -1.3035 297.128 -0.648233C319.387 -0.90761 252.383 -1.28985 262.961 -4.32047C338.48 -4.1703 355.702 -1.19429 392.855 3.16052C415.498 6.38226 359.863 6.43686 345.819 6.46416C297.752 1.65886 227.534 -0.566322 152.614 1.60426L111.479 5.12632C92.9376 3.52911 87.6008 1.15376 78.5461 -0.71649C74.0129 -1.65844 68.5442 -2.46387 60.0292 -2.99628C55.7717 -3.25566 50.7468 -3.44678 44.6904 -3.55599C41.6682 -3.61059 38.3821 -3.63789 34.8082 -3.63789C31.2823 -3.61059 27.4686 -3.59694 23.3311 -3.56964L43.1792 -1.04412C35.8396 -0.552671 29.7712 -0.225037 24.6383 -0.0202656C22.5276 0.0616436 20.6208 0.1299 18.8699 0.198156C17.1788 0.239111 15.6317 0.252762 14.2286 0.252762C17.0709 0.498487 19.937 0.730562 22.8273 0.976288C26.4252 1.22201 30.0471 1.46774 33.681 1.71347C41.0447 2.21857 48.4323 2.73732 55.7479 3.24243C70.3552 4.30724 84.6146 5.34475 97.6388 6.30035C86.0657 7.92487 71.4344 8.32076 55.0881 8.06138C46.9091 7.92487 38.3102 7.62453 29.4595 7.22864C24.9021 7.01022 20.2728 6.7918 15.6075 6.57338C11.0503 6.32765 6.45703 6.08192 1.83984 5.82255C2.41553 -7.86983 2.99121 -21.7397 3.56689 -35.3502C4.08252 -48.7968 4.51428 -61.9841 4.69421 -74.4888C4.09448 -71.1715 3.91455 -48.8924 2.70337 -42.2578C1.58801 -137.381 7.18884 -236.995 7.93237 -310.467C5.86963 -341.524 6.56506 -249.446 3.50684 -264.585C4.68213 -303.205 1.99585 -346.835 4.83813 -357.183C0.784546 -340.296 4.53821 -445.944 0.748413 -372.063C-1.01453 -511.294 2.70337 -664.558 5.00598 -805.236C3.78271 -798.41 2.77515 -798.411 1.94763 -804.322C1.99561 -756.705 0.844604 -686.755 -1.98572 -660.326C-4.06055 -691.602 0.784302 -734.344 -0.438965 -743.341C-1.43433 -727.369 -1.41028 -695.643 -3.4491 -695.096C-5.73975 -735.86 -2.50146 -758.698 -2.11768 -787.394L-1.0863 -771.831C1.67212 -861.275 5.98938 -821.195 4.87402 -916.181C2.40356 -950.583 2.84729 -915.854 -0.210937 -915.267C0.988403 -937.641 -2.33362 -1009.76 0.904419 -1033.04L1.16833 -975.552C2.03186 -1015.8 2.01978 -1053.84 3.0752 -1081.72C2.41553 -1078.84 1.74402 -1076.5 1.48022 -1067.97C2.46362 -1099.94 2.21167 -1140.98 4.25049 -1157.33L0.97644 -1166.33C2.42761 -1147.26 2.67932 -1090.24 0.856445 -1080.61C-2.00989 -1086.09 -0.2229 -1143.76 -0.450806 -1169.02C-1.3623 -1057.64 -6.44727 -1056.27 -4.32446 -961.968L-3.31702 -977.872C-0.846558 -919.212 -4.92407 -858.763 -4.82812 -807.366C-5.49963 -821.836 -6.68701 -824.771 -7.23877 -817.973C-4.6842 -704.27 -6.61523 -592.424 -5.06812 -462.817L-8.29419 -423.815L-5.84766 -421.399C-4.76831 -357.988 -9.30151 -407.666 -9.06165 -366.793C-9.06165 -382.329 -8.66589 -379.544 -8.0542 -382.711C-10.8365 -309.116 -5.77576 -341.825 -6.5553 -300.529C-3.92883 -320.16 -5.61963 -380.131 -2.14172 -361.715C-4.92407 -288.284 -3.37708 -174.103 -9.27759 -163.332C-8.82178 -136.835 -8.58191 -109.109 -8.51001 -80.7821C-8.51001 -66.6256 -8.51001 -52.3052 -8.51001 -37.9303C-8.56995 -19.4053 -8.64197 -0.798397 -8.7019 17.8085C4.93396 17.9041 18.558 17.9996 32.1339 18.0952C42.064 18.218 51.9459 18.3409 61.7681 18.4501C81.4004 18.7231 100.721 19.0098 119.49 19.2692C157.004 19.8289 192.251 20.334 223.024 20.5115C236.756 19.3375 214.449 19.5832 219.726 18.6549C259.531 22.5456 353.303 15.9383 353.938 19.4194C373.199 18.4638 381.246 15.911 386.475 14.9827C412.02 16.6481 442.614 17.4672 475.078 17.945L451.333 16.9894L453.923 16.5253L487.623 17.8768L486.376 18.0952C567.172 19.0917 660.536 18.2453 733.837 21.9722C691.622 19.7061 744.462 17.7812 724.518 16.4161C761.78 21.9312 851.091 22.0541 923.528 21.4944C923.216 20.334 928.829 19.4057 920.326 18.4911L962.325 20.7572L956.76 19.3648C1031.97 18.3409 1113.87 24.4977 1163.53 21.8766C1132.83 21.2214 1132.66 20.061 1129.58 18.2044C1183.46 18.3409 1234.29 18.4092 1297.24 20.0746C1293.87 19.7334 1291.67 19.3511 1291.58 18.9279C1308.07 18.4501 1327.89 19.8153 1344.78 20.4842L1347.07 17.7129C1379.27 18.9962 1420.85 17.5628 1459.12 19.788C1474.12 16.73 1551.82 22.6138 1596.02 21.3306C1612.93 21.9995 1559.17 18.1361 1606.59 18.3C1609.95 21.3169 1625.34 21.3442 1640.35 21.4398C1647.86 21.4944 1655.27 21.549 1661.04 21.9995C1662.48 22.1087 1663.82 22.2589 1665.03 22.4227C1665.65 22.5046 1666.21 22.6002 1666.75 22.6957C1667.01 22.7503 1667.28 22.8049 1667.53 22.8595C1667.96 22.9141 1668.38 22.9687 1668.79 23.0233C1672.03 23.5011 1674.35 24.1155 1675.35 24.9209L1705.22 24.0063L1704.61 -0.893959L1704.3 -13.0437L1704.14 -18.9821L1703.99 -22.4632L1706.83 -32.8793C1701.49 -72.9735 1709.22 -93.9421 1707.53 -153.599C1706.91 -150.445 1706.71 -144.057 1706.3 -147.114C1706.89 -166.39 1707.26 -210.853 1708.71 -176.397C1708.69 -208.191 1710.01 -316.392 1707 -267.834C1708.63 -271.342 1707.24 -226.88 1706.65 -207.645C1704.2 -210.17 1705.18 -257.95 1702.51 -269.813C1702.78 -271.356 1703.2 -277.649 1703.6 -282.209L1702.09 -289.021C1704.78 -348.76 1702.85 -409.481 1706.31 -452.947C1705.56 -455.473 1704.97 -465.944 1705.15 -486.475L1708.21 -487.349L1708.15 -550.869L1703.7 -521.123C1702.81 -590.827 1707.86 -639.876 1708.62 -697.117C1703.52 -711.833 1710.55 -808.84 1706.01 -858.436L1704.64 -813.7C1705.56 -909.287 1702.49 -924.495 1704.24 -1013.65C1705.94 -938.024 1704.92 -937.587 1709.1 -827.433C1706.96 -938.024 1711.98 -1018.5 1709.01 -1119.75C1707.8 -1112.98 1707.02 -1087.58 1705.76 -1112.35C1708.39 -1132.12 1705.67 -1207.75 1708.74 -1192.76C1707.69 -1224.2 1704.83 -1229.67 1704.41 -1248.89L1708.17 -1354.42L1707.56 -1351.18C1707.09 -1362.99 1706.71 -1374.69 1706.4 -1386.3C1706.33 -1389.2 1706.25 -1392.1 1706.18 -1394.99L1706.09 -1401.53C1706.05 -1404.12 1706.03 -1406.73 1705.99 -1409.33C1705.88 -1419.61 1705.79 -1429.83 1705.68 -1440.04C1691.74 -1439.92 1677.88 -1439.8 1664.09 -1439.69C1655.87 -1439.65 1647.71 -1439.62 1639.56 -1439.58C1623.29 -1439.58 1607.13 -1439.74 1591.05 -1439.99C1558.89 -1440.48 1527.02 -1441.37 1495.01 -1442.24C1430.98 -1443.97 1366.39 -1445.68 1297.72 -1444.18L1300.78 -1442.32L1261.19 -1445.05C1292.21 -1443.24 1247.76 -1442.72 1245.32 -1441.09L1144 -1445.13C1141.73 -1443.51 1147.7 -1439.81 1172.55 -1440.53V-1440.55ZM1704.76 -489.902L1704.54 -462.599C1704.7 -457.125 1704.73 -451.473 1704.41 -445.275L1704.54 -462.599C1704.13 -476.633 1702.85 -486.939 1704.76 -489.902ZM-7.74243 -96.6041C-6.32727 -109.737 -7.31067 -77.656 -7.10681 -68.5095L-6.73511 -112.972C-7.55066 -119.143 -7.53857 -103.075 -7.74243 -96.6041ZM1685.02 -488.305L1682.96 -503.54L1684.57 -523.034L1685.02 -488.305ZM1684.84 -875.773L1683.65 -837.153L1683.24 -840.389L1684.43 -878.613L1684.84 -875.787V-875.773ZM1701.31 -1306.23C1701.19 -1303.79 1701.11 -1301.53 1700.91 -1298.78C1700.99 -1301.21 1701.13 -1303.79 1701.31 -1306.23C1702.79 -1336.06 1699.12 -1347.92 1702.68 -1372.18C1705.73 -1342.41 1702.57 -1323.27 1701.31 -1306.23ZM1701.36 -625.529C1700.97 -612.587 1700.77 -606.226 1700.98 -596.793C1702.19 -603.509 1704 -629.447 1704.42 -610.444C1703 -597.229 1702.64 -552.931 1700.62 -552.303C1702.81 -590.841 1697.09 -618.089 1701.36 -625.515V-625.529ZM1441.82 18.0815L1450.35 17.8358L1419.12 16.0202L1441.82 18.0815ZM1296.34 15.7198C1279.03 12.7302 1234.53 13.2489 1203.74 12.5937C1195.77 15.1601 1227.03 18.1225 1263.25 17.8495C1305.63 20.1156 1279.26 13.8905 1296.34 15.7198ZM1697.4 -923.062L1695.59 -913.246L1695.38 -922.488L1694.2 -884.21C1691.71 -934.515 1696.36 -970.446 1697.14 -996.138C1696.95 -973.681 1692.53 -912.332 1697.42 -923.048L1697.4 -923.062ZM986.191 14.2591C955.177 12.4435 899.242 10.2047 904.375 8.10234C902.396 12.0476 947.31 13.8496 961.281 13.8223C969.389 13.5902 975.253 13.8086 986.203 14.2591H986.191ZM987.858 6.84641C1032.84 8.64839 1035.92 10.4913 1070.26 14.1636C1025.73 15.829 1013.57 10.7644 1018.87 8.66204C987.858 6.84641 993.854 9.39922 977.28 9.87702L987.858 6.84641ZM1034.57 17.9041L1052.89 17.358C1074.57 15.7198 1079.08 11.2558 1109.47 15.7198L1052.89 17.358C1048.05 17.7402 1042.05 17.9723 1034.57 17.9041ZM656.339 17.6993L674.82 19.0508C656.59 18.9143 654.468 18.3273 656.339 17.6993L640.952 16.5526C681.044 15.1328 660.416 16.498 656.339 17.6993ZM944.803 16.6345L997.956 17.0304C994.897 15.1738 961.737 16.143 944.803 16.6345ZM668.2 14.2045C690.59 13.9451 748.996 13.3991 740.876 13.6585C735.576 15.7471 682.399 15.3512 668.2 14.2045ZM-0.666626 -571.742L-0.834473 -533.614L-3.29309 -552.043L-0.666626 -571.742ZM1.19214 -124.371L-0.0310059 -133.804L0.148804 -155.974L1.19214 -124.371ZM250.668 6.42321C248.929 7.02387 249.865 7.78835 252.875 8.42997C258.391 8.6757 263.212 9.03063 265.491 9.61764C260.538 9.61764 255.801 9.11254 252.875 8.42997C238.351 7.802 216.728 8.14329 206.882 9.00333C212.71 10.3821 235.077 10.1227 243.724 11.0374C210.588 14.3274 136.16 4.44375 157.399 13.9315C143.368 12.7984 95.3604 10.3002 111.958 8.66204C149.916 9.2081 221.873 8.18424 250.68 6.43686C252.359 5.93176 255.513 5.53587 262.037 5.46761C260.13 5.82255 255.801 6.13653 250.68 6.43686L250.668 6.42321ZM739.042 4.3755C752.737 4.60757 758.686 4.89425 761.396 5.20823C773.173 5.90446 782.132 6.96927 778.654 8.26615C750.027 7.11943 768.328 6.05462 761.396 5.20823C754.2 4.78504 746.441 4.45741 739.042 4.3755ZM825.378 3.80214L780.561 2.0138L803.143 4.06151L735.576 0.211809C774.336 -1.68574 819.382 1.26297 825.378 3.80214ZM841.149 1.98649L850.395 4.25263L836.256 1.94554L841.149 2.00014L839.026 1.48139L914.545 2.77828L841.149 2.00014V1.98649ZM1612.77 6.51877C1641.07 -1.28985 1545.99 0.976288 1531.23 -2.79151C1528.08 -0.184084 1499.44 3.88404 1573.21 3.78848C1509.46 6.40956 1533.28 -1.26255 1495.34 5.27649C1525.87 4.78504 1562.64 6.8191 1568.08 7.03753L1532.11 7.31055C1552.47 12.1432 1587.49 4.92155 1612.77 6.51877ZM1688.8 -349.401L1688.96 -403.297L1688.4 -352.282L1688.8 -349.401ZM1461.26 -1418.66C1464.61 -1416.82 1403.66 -1413.49 1389.16 -1416.96C1419.86 -1417.46 1453.42 -1417.27 1461.26 -1418.66ZM959.039 -1419.2L1012.24 -1417.64C1001.99 -1413.45 964.723 -1417.82 939.778 -1417.08C931.107 -1419.15 950.752 -1417.79 959.039 -1419.18V-1419.2ZM612.936 -1419.21L596.015 -1419.88L613.812 -1415.73L612.948 -1419.2L612.936 -1419.21ZM636.227 -1413.68C625.553 -1411.81 661.903 -1410.94 670.478 -1411.17L636.227 -1413.68ZM324.436 -1410.05L346.623 -1410.31L326.559 -1413.99L324.436 -1410.05ZM359.767 -1414.36C364.984 -1411.71 362.777 -1408.15 413.855 -1409.93C415.978 -1412.71 402.078 -1412.68 421.039 -1415.96C404.225 -1416.63 390.445 -1415.46 382.05 -1415.22C393.491 -1414.77 407.031 -1415.95 410.149 -1414.1C391.116 -1413.05 371.544 -1413.39 359.779 -1414.38C357.992 -1415.32 355.15 -1416.15 348.434 -1416.57C348.602 -1415.73 352.931 -1414.95 359.779 -1414.38L359.767 -1414.36ZM544.805 -1417.28C551.557 -1417.61 557.385 -1417.98 560.06 -1418.46L563.142 -1417.76C556.21 -1416.56 550.214 -1416.83 544.817 -1417.3C537.429 -1416.93 528.83 -1416.62 519.968 -1416.32C514.307 -1413.97 549.278 -1412.37 558.501 -1411.06C541.855 -1411.73 527.463 -1414.02 505.408 -1412.62C508.323 -1411.92 505.552 -1411.46 519.44 -1411.48L488.978 -1410.96C454.115 -1414.23 487.407 -1415.25 519.968 -1416.32C520.999 -1416.83 523.458 -1417.37 529.622 -1417.97C534.815 -1418.31 539.636 -1417.72 544.817 -1417.3L544.805 -1417.28ZM299.971 -1422.53L316.665 -1421.86C325.24 -1420.94 319.795 -1420.01 322.781 -1419.32C303.221 -1419.52 277.688 -1421.12 299.971 -1422.53ZM1301.6 -1423.33C1290.52 -1422.62 1316.13 -1419.86 1341.02 -1420.6L1327.77 -1417.12C1327.14 -1419.43 1277.13 -1419.14 1271.51 -1419.37C1262.67 -1422.59 1282.15 -1421.23 1301.59 -1423.35L1301.6 -1423.33ZM1691.07 -537.163C1687.21 -526.815 1689.52 -454.285 1688.52 -438.259C1687.67 -475.977 1686.77 -561.749 1691.07 -537.163ZM1692.64 -411.379C1692.59 -391.543 1692.95 -385.892 1691.02 -387.939C1690.22 -378.315 1691.25 -362.602 1690.45 -352.91C1688.74 -391.53 1691.83 -389.113 1692.64 -411.379C1692.65 -416.566 1692.69 -422.423 1692.81 -429.808C1692.93 -421.809 1692.81 -416.239 1692.64 -411.379ZM1692.88 -1185.59L1695.71 -1211.97L1695.46 -1253.17L1692.88 -1185.59ZM1506.54 -1431.24C1509.51 -1429.38 1467.94 -1429.34 1459.29 -1430.25C1461.94 -1427.82 1489.81 -1428.14 1511.98 -1427.88C1514.82 -1427.67 1519.47 -1427.55 1526.58 -1427.56C1522.24 -1427.74 1517.43 -1427.82 1511.98 -1427.88C1503.67 -1428.45 1509.45 -1429.69 1509.45 -1430.55L1520.48 -1431.26L1489.81 -1431.92L1506.54 -1431.24ZM822.44 -1433.86C797.615 -1431.96 794.652 -1432.66 777.946 -1433.32C783.307 -1434.27 805.566 -1434.53 822.44 -1433.86ZM1699.8 -1393.69C1699.72 -1397.6 1699.65 -1400.89 1699.59 -1403.65C1699.51 -1406.8 1699.43 -1409.31 1699.35 -1411.29C1699.18 -1415.24 1699.01 -1417 1698.82 -1417.3C1698.45 -1417.89 1698.05 -1412.7 1697.64 -1407.09C1697.44 -1404.33 1697.22 -1401.38 1697.04 -1398.87C1696.95 -1397.65 1696.85 -1396.43 1696.76 -1395.88C1696.66 -1395.2 1696.56 -1394.65 1696.48 -1394.28C1696.3 -1393.54 1696.12 -1393.54 1695.96 -1394.69C1695.93 -1394.98 1695.88 -1395.35 1695.84 -1395.78C1695.83 -1396 1695.81 -1396.25 1695.78 -1396.51C1695.77 -1396.83 1695.75 -1397.2 1695.72 -1397.59C1695.65 -1399.18 1695.58 -1401.23 1695.52 -1403.77L1695.75 -1377.12C1695.3 -1385.08 1695.13 -1391.03 1695.13 -1395.66C1695.13 -1397.07 1695.15 -1398.36 1695.16 -1399.58C1695.2 -1400.89 1695.22 -1402.1 1695.24 -1403.25C1695.32 -1405.54 1695.42 -1407.55 1695.56 -1409.39C1696.07 -1416.75 1696.91 -1421.46 1697.33 -1430.55C1693.55 -1430.81 1688.3 -1430.94 1680.71 -1430.77L1697.82 -1431.11L1697.94 -1423.48C1698.38 -1419.29 1698.7 -1418.68 1698.94 -1420.67C1699.18 -1422.65 1699.35 -1427.2 1699.48 -1433.01C1693.1 -1433.19 1684.85 -1433.42 1677.86 -1433.63C1674.31 -1433.75 1671.06 -1433.88 1668.49 -1434.06C1668.17 -1434.09 1667.85 -1434.1 1667.57 -1434.13C1667.37 -1434.16 1667.18 -1434.18 1667 -1434.2C1666.65 -1434.25 1666.33 -1434.29 1666.05 -1434.35C1665.49 -1434.46 1665.08 -1434.58 1664.86 -1434.7C1665.65 -1434.73 1666.47 -1434.77 1667.35 -1434.81C1668.68 -1434.84 1670.07 -1434.87 1671.51 -1434.89C1674.46 -1434.92 1677.6 -1434.95 1680.87 -1434.98C1687.39 -1435 1694.37 -1434.98 1701.16 -1434.91C1701.1 -1426.66 1701 -1418.58 1700.88 -1411.47C1700.81 -1407.92 1700.75 -1404.6 1700.7 -1401.6C1700.67 -1400.11 1700.63 -1398.69 1700.61 -1397.37C1700.59 -1396.85 1700.57 -1396.36 1700.56 -1395.88C1700.55 -1395.48 1700.52 -1395.1 1700.51 -1394.75C1700.23 -1388.94 1699.96 -1387.32 1699.81 -1393.72L1699.8 -1393.69ZM783.151 -1435.41C741.728 -1433.04 749.055 -1437.93 723.954 -1438.35C756.947 -1440.48 752.126 -1436.07 783.151 -1435.41ZM1449.13 -1440.44L1451.75 -1440.89L1418.14 -1442.24L1415.46 -1441.78L1449.13 -1440.44Z" fill="#A47968"/>
</g>
<defs>
<clipPath id="clip0_299_6315">
<rect width="402" height="25" fill="white" transform="matrix(-1 0 0 -1 402 25)"/>
</clipPath>
</defs>
</svg>
